<?xml version="1.0" encoding="UTF-8" standalone="no"?>
<!-- Created with Inkscape (http://www.inkscape.org/) -->

<svg
   version="1.1"
   id="svg2"
   width="117.96267"
   height="114.448"
   viewBox="0 0 117.96267 114.448"
   xmlns="http://www.w3.org/2000/svg"
   xmlns:svg="http://www.w3.org/2000/svg">
  <defs
     id="defs6">
    <clipPath
       clipPathUnits="userSpaceOnUse"
       id="clipPath26">
      <path
         d="m 2.12592,4.96077 c 0,3.91391 -3.17276,7.08668 -7.08669,7.08668 -3.91391,0 -7.08668,-3.17277 -7.08668,-7.08668 0,-3.91393 3.17277,-7.08669 7.08668,-7.08669 3.91393,0 7.08669,3.17276 7.08669,7.08669 z"
         id="path24" />
    </clipPath>
    <clipPath
       clipPathUnits="userSpaceOnUse"
       id="clipPath40">
      <path
         d="M 0,0 H 100 V 100 H 0 Z"
         id="path38" />
    </clipPath>
    <radialGradient
       fx="50.000641"
       fy="50.000641"
       cx="50.000641"
       cy="50.000641"
       r="50.000641"
       gradientUnits="userSpaceOnUse"
       id="radialGradient48">
      <stop
         style="stop-opacity:1;stop-color:#e6faff"
         offset="0"
         id="stop42" />
      <stop
         style="stop-opacity:1;stop-color:#ccebff"
         offset="25.00032"
         id="stop44" />
      <stop
         style="stop-opacity:1;stop-color:#ccebff"
         offset="50.00064"
         id="stop46" />
    </radialGradient>
    <clipPath
       clipPathUnits="userSpaceOnUse"
       id="clipPath64">
      <path
         d="m 12.04745,-4.96077 c 0,3.91393 -3.17277,7.08669 -7.08668,7.08669 -3.91393,0 -7.08669,-3.17276 -7.08669,-7.08669 0,-3.91391 3.17276,-7.08668 7.08669,-7.08668 3.91391,0 7.08668,3.17277 7.08668,7.08668 z"
         id="path62" />
    </clipPath>
    <clipPath
       clipPathUnits="userSpaceOnUse"
       id="clipPath78">
      <path
         d="M 0,0 H 100 V 100 H 0 Z"
         id="path76" />
    </clipPath>
    <radialGradient
       fx="50.000641"
       fy="50.000641"
       cx="50.000641"
       cy="50.000641"
       r="50.000641"
       gradientUnits="userSpaceOnUse"
       id="radialGradient86">
      <stop
         style="stop-opacity:1;stop-color:#e6faff"
         offset="0"
         id="stop80" />
      <stop
         style="stop-opacity:1;stop-color:#ccebff"
         offset="25.00032"
         id="stop82" />
      <stop
         style="stop-opacity:1;stop-color:#ccebff"
         offset="50.00064"
         id="stop84" />
    </radialGradient>
    <clipPath
       clipPathUnits="userSpaceOnUse"
       id="clipPath102">
      <path
         d="m 2.12592,-4.96077 c 0,3.91393 -3.17276,7.08669 -7.08669,7.08669 -3.91391,0 -7.08668,-3.17276 -7.08668,-7.08669 0,-3.91391 3.17277,-7.08668 7.08668,-7.08668 3.91393,0 7.08669,3.17277 7.08669,7.08668 z"
         id="path100" />
    </clipPath>
    <clipPath
       clipPathUnits="userSpaceOnUse"
       id="clipPath116">
      <path
         d="M 0,0 H 100 V 100 H 0 Z"
         id="path114" />
    </clipPath>
    <radialGradient
       fx="50.000641"
       fy="50.000641"
       cx="50.000641"
       cy="50.000641"
       r="50.000641"
       gradientUnits="userSpaceOnUse"
       id="radialGradient124">
      <stop
         style="stop-opacity:1;stop-color:#ffffff"
         offset="0"
         id="stop118" />
      <stop
         style="stop-opacity:1;stop-color:#ff9999"
         offset="25.00032"
         id="stop120" />
      <stop
         style="stop-opacity:1;stop-color:#ff9999"
         offset="50.00064"
         id="stop122" />
    </radialGradient>
    <clipPath
       clipPathUnits="userSpaceOnUse"
       id="clipPath140">
      <path
         d="m 12.04745,4.96077 c 0,3.91391 -3.17277,7.08668 -7.08668,7.08668 -3.91393,0 -7.08669,-3.17277 -7.08669,-7.08668 0,-3.91393 3.17276,-7.08669 7.08669,-7.08669 3.91391,0 7.08668,3.17276 7.08668,7.08669 z"
         id="path138" />
    </clipPath>
    <clipPath
       clipPathUnits="userSpaceOnUse"
       id="clipPath154">
      <path
         d="M 0,0 H 100 V 100 H 0 Z"
         id="path152" />
    </clipPath>
    <radialGradient
       fx="50.000641"
       fy="50.000641"
       cx="50.000641"
       cy="50.000641"
       r="50.000641"
       gradientUnits="userSpaceOnUse"
       id="radialGradient162">
      <stop
         style="stop-opacity:1;stop-color:#ffffff"
         offset="0"
         id="stop156" />
      <stop
         style="stop-opacity:1;stop-color:#ff9999"
         offset="25.00032"
         id="stop158" />
      <stop
         style="stop-opacity:1;stop-color:#ff9999"
         offset="50.00064"
         id="stop160" />
    </radialGradient>
    <clipPath
       clipPathUnits="userSpaceOnUse"
       id="clipPath186">
      <path
         d="m -39.68535,0 c 0,1.56564 -1.26919,2.83484 -2.83485,2.83484 -1.56565,0 -2.83486,-1.2692 -2.83486,-2.83484 0,-1.56564 1.26921,-2.83484 2.83486,-2.83484 1.56566,0 2.83485,1.2692 2.83485,2.83484 z"
         id="path184" />
    </clipPath>
    <clipPath
       clipPathUnits="userSpaceOnUse"
       id="clipPath200">
      <path
         d="M 0,0 H 100 V 100 H 0 Z"
         id="path198" />
    </clipPath>
    <radialGradient
       fx="50.000641"
       fy="50.000641"
       cx="50.000641"
       cy="50.000641"
       r="50.000641"
       gradientUnits="userSpaceOnUse"
       id="radialGradient208">
      <stop
         style="stop-opacity:1;stop-color:#ffffff"
         offset="0"
         id="stop202" />
      <stop
         style="stop-opacity:1;stop-color:#ffd900"
         offset="25.00032"
         id="stop204" />
      <stop
         style="stop-opacity:1;stop-color:#ffd900"
         offset="50.00064"
         id="stop206" />
    </radialGradient>
    <clipPath
       clipPathUnits="userSpaceOnUse"
       id="clipPath224">
      <path
         d="m 2.83484,-35.43349 c 0,1.56565 -1.2692,2.83484 -2.83484,2.83484 -1.56564,0 -2.83484,-1.26919 -2.83484,-2.83484 0,-1.56566 1.2692,-2.83485 2.83484,-2.83485 1.56564,0 2.83484,1.26919 2.83484,2.83485 z"
         id="path222" />
    </clipPath>
    <clipPath
       clipPathUnits="userSpaceOnUse"
       id="clipPath238">
      <path
         d="M 0,0 H 100 V 100 H 0 Z"
         id="path236" />
    </clipPath>
    <radialGradient
       fx="50.000641"
       fy="50.000641"
       cx="50.000641"
       cy="50.000641"
       r="50.000641"
       gradientUnits="userSpaceOnUse"
       id="radialGradient246">
      <stop
         style="stop-opacity:1;stop-color:#ffffff"
         offset="0"
         id="stop240" />
      <stop
         style="stop-opacity:1;stop-color:#ffd900"
         offset="25.00032"
         id="stop242" />
      <stop
         style="stop-opacity:1;stop-color:#ffd900"
         offset="50.00064"
         id="stop244" />
    </radialGradient>
  </defs>
  <g
     id="g8"
     transform="matrix(1.3333333,0,0,-1.3333333,0,114.448)">
    <g
       id="g10"
       transform="translate(45.554,42.918)">
      <g
         id="g12">
        <g
           id="g14">
          <g
             id="g16">
            <path
               d="m 2.12592,4.96077 c 0,3.91391 -3.17276,7.08668 -7.08669,7.08668 -3.91391,0 -7.08668,-3.17277 -7.08668,-7.08668 0,-3.91393 3.17277,-7.08669 7.08668,-7.08669 3.91393,0 7.08669,3.17276 7.08669,7.08669 z"
               style="fill:#ccebff;fill-opacity:1;fill-rule:nonzero;stroke:none"
               id="path18" />
            <g
               id="g20">
              <g
                 id="g22"
                 clip-path="url(#clipPath26)">
                <g
                   id="g28"
                   transform="matrix(0.2835,0,0,0.2835,-4.96077,4.96077)">
                  <g
                     id="g30">
                    <g
                       id="g32"
                       transform="translate(-50,-50)">
                      <g
                         id="g34">
                        <g
                           id="g36"
                           clip-path="url(#clipPath40)">
                          <path
                             d="M 0,0 H 100 V 100 H 0 Z"
                             style="fill:url(#radialGradient48);stroke:none"
                             id="path50" />
                        </g>
                      </g>
                    </g>
                  </g>
                </g>
              </g>
            </g>
            <path
               d="m 2.12592,4.96077 c 0,3.91391 -3.17276,7.08668 -7.08669,7.08668 -3.91391,0 -7.08668,-3.17277 -7.08668,-7.08668 0,-3.91393 3.17277,-7.08669 7.08668,-7.08669 3.91393,0 7.08669,3.17276 7.08669,7.08669 z"
               style="fill:none;stroke:#ccebff;stroke-width:0.3985;stroke-linecap:butt;stroke-linejoin:miter;stroke-miterlimit:10;stroke-dasharray:none;stroke-opacity:1"
               id="path52" />
          </g>
          <g
             id="g54">
            <path
               d="m 12.04745,-4.96077 c 0,3.91393 -3.17277,7.08669 -7.08668,7.08669 -3.91393,0 -7.08669,-3.17276 -7.08669,-7.08669 0,-3.91391 3.17276,-7.08668 7.08669,-7.08668 3.91391,0 7.08668,3.17277 7.08668,7.08668 z"
               style="fill:#ccebff;fill-opacity:1;fill-rule:nonzero;stroke:none"
               id="path56" />
            <g
               id="g58">
              <g
                 id="g60"
                 clip-path="url(#clipPath64)">
                <g
                   id="g66"
                   transform="matrix(0.2835,0,0,0.2835,4.96077,-4.96077)">
                  <g
                     id="g68">
                    <g
                       id="g70"
                       transform="translate(-50,-50)">
                      <g
                         id="g72">
                        <g
                           id="g74"
                           clip-path="url(#clipPath78)">
                          <path
                             d="M 0,0 H 100 V 100 H 0 Z"
                             style="fill:url(#radialGradient86);stroke:none"
                             id="path88" />
                        </g>
                      </g>
                    </g>
                  </g>
                </g>
              </g>
            </g>
            <path
               d="m 12.04745,-4.96077 c 0,3.91393 -3.17277,7.08669 -7.08668,7.08669 -3.91393,0 -7.08669,-3.17276 -7.08669,-7.08669 0,-3.91391 3.17276,-7.08668 7.08669,-7.08668 3.91391,0 7.08668,3.17277 7.08668,7.08668 z"
               style="fill:none;stroke:#ccebff;stroke-width:0.3985;stroke-linecap:butt;stroke-linejoin:miter;stroke-miterlimit:10;stroke-dasharray:none;stroke-opacity:1"
               id="path90" />
          </g>
          <g
             id="g92">
            <path
               d="m 2.12592,-4.96077 c 0,3.91393 -3.17276,7.08669 -7.08669,7.08669 -3.91391,0 -7.08668,-3.17276 -7.08668,-7.08669 0,-3.91391 3.17277,-7.08668 7.08668,-7.08668 3.91393,0 7.08669,3.17277 7.08669,7.08668 z"
               style="fill:#ff9999;fill-opacity:1;fill-rule:nonzero;stroke:none"
               id="path94" />
            <g
               id="g96">
              <g
                 id="g98"
                 clip-path="url(#clipPath102)">
                <g
                   id="g104"
                   transform="matrix(0.2835,0,0,0.2835,-4.96077,-4.96077)">
                  <g
                     id="g106">
                    <g
                       id="g108"
                       transform="translate(-50,-50)">
                      <g
                         id="g110">
                        <g
                           id="g112"
                           clip-path="url(#clipPath116)">
                          <path
                             d="M 0,0 H 100 V 100 H 0 Z"
                             style="fill:url(#radialGradient124);stroke:none"
                             id="path126" />
                        </g>
                      </g>
                    </g>
                  </g>
                </g>
              </g>
            </g>
            <path
               d="m 2.12592,-4.96077 c 0,3.91393 -3.17276,7.08669 -7.08669,7.08669 -3.91391,0 -7.08668,-3.17276 -7.08668,-7.08669 0,-3.91391 3.17277,-7.08668 7.08668,-7.08668 3.91393,0 7.08669,3.17277 7.08669,7.08668 z"
               style="fill:none;stroke:#ff9999;stroke-width:0.3985;stroke-linecap:butt;stroke-linejoin:miter;stroke-miterlimit:10;stroke-dasharray:none;stroke-opacity:1"
               id="path128" />
          </g>
          <g
             id="g130">
            <path
               d="m 12.04745,4.96077 c 0,3.91391 -3.17277,7.08668 -7.08668,7.08668 -3.91393,0 -7.08669,-3.17277 -7.08669,-7.08668 0,-3.91393 3.17276,-7.08669 7.08669,-7.08669 3.91391,0 7.08668,3.17276 7.08668,7.08669 z"
               style="fill:#ff9999;fill-opacity:1;fill-rule:nonzero;stroke:none"
               id="path132" />
            <g
               id="g134">
              <g
                 id="g136"
                 clip-path="url(#clipPath140)">
                <g
                   id="g142"
                   transform="matrix(0.2835,0,0,0.2835,4.96077,4.96077)">
                  <g
                     id="g144">
                    <g
                       id="g146"
                       transform="translate(-50,-50)">
                      <g
                         id="g148">
                        <g
                           id="g150"
                           clip-path="url(#clipPath154)">
                          <path
                             d="M 0,0 H 100 V 100 H 0 Z"
                             style="fill:url(#radialGradient162);stroke:none"
                             id="path164" />
                        </g>
                      </g>
                    </g>
                  </g>
                </g>
              </g>
            </g>
            <path
               d="m 12.04745,4.96077 c 0,3.91391 -3.17277,7.08668 -7.08668,7.08668 -3.91393,0 -7.08669,-3.17277 -7.08669,-7.08668 0,-3.91393 3.17276,-7.08669 7.08669,-7.08669 3.91391,0 7.08668,3.17276 7.08668,7.08669 z"
               style="fill:none;stroke:#ff9999;stroke-width:0.3985;stroke-linecap:butt;stroke-linejoin:miter;stroke-miterlimit:10;stroke-dasharray:none;stroke-opacity:1"
               id="path166" />
          </g>
          <g
             id="g168">
            <path
               d="M 35.4335,0 C 35.4335,19.56963 19.56963,35.4335 0,35.4335 -19.56963,35.4335 -35.4335,19.56963 -35.4335,0 c 0,-19.56963 15.86387,-35.4335 35.4335,-35.4335 19.56963,0 35.4335,15.86387 35.4335,35.4335 z"
               style="fill:none;stroke:#fcd205;stroke-width:0.79701;stroke-linecap:butt;stroke-linejoin:miter;stroke-miterlimit:10;stroke-dasharray:0.79701, 0.99628;stroke-dashoffset:0;stroke-opacity:1"
               id="path170" />
          </g>
          <g
             id="g172">
            <path
               d="M 42.52022,0 C 42.52022,23.48355 23.48355,42.52022 0,42.52022 -23.48355,42.52022 -42.52022,23.48355 -42.52022,0 c 0,-23.48355 19.03667,-42.52022 42.52022,-42.52022 23.48355,0 42.52022,19.03667 42.52022,42.52022 z"
               style="fill:none;stroke:#fcd205;stroke-width:0.79701;stroke-linecap:butt;stroke-linejoin:miter;stroke-miterlimit:10;stroke-dasharray:0.79701, 0.99628;stroke-dashoffset:0;stroke-opacity:1"
               id="path174" />
          </g>
          <g
             id="g176">
            <path
               d="m -39.68535,0 c 0,1.56564 -1.26919,2.83484 -2.83485,2.83484 -1.56565,0 -2.83486,-1.2692 -2.83486,-2.83484 0,-1.56564 1.26921,-2.83484 2.83486,-2.83484 1.56566,0 2.83485,1.2692 2.83485,2.83484 z"
               style="fill:#fcd205;fill-opacity:1;fill-rule:nonzero;stroke:none"
               id="path178" />
            <g
               id="g180">
              <g
                 id="g182"
                 clip-path="url(#clipPath186)">
                <g
                   id="g188"
                   transform="matrix(0.1134,0,0,0.1134,-42.52019,0)">
                  <g
                     id="g190">
                    <g
                       id="g192"
                       transform="translate(-50,-50)">
                      <g
                         id="g194">
                        <g
                           id="g196"
                           clip-path="url(#clipPath200)">
                          <path
                             d="M 0,0 H 100 V 100 H 0 Z"
                             style="fill:url(#radialGradient208);stroke:none"
                             id="path210" />
                        </g>
                      </g>
                    </g>
                  </g>
                </g>
              </g>
            </g>
            <path
               d="m -39.68535,0 c 0,1.56564 -1.26919,2.83484 -2.83485,2.83484 -1.56565,0 -2.83486,-1.2692 -2.83486,-2.83484 0,-1.56564 1.26921,-2.83484 2.83486,-2.83484 1.56566,0 2.83485,1.2692 2.83485,2.83484 z"
               style="fill:none;stroke:#fcd205;stroke-width:0.3985;stroke-linecap:butt;stroke-linejoin:miter;stroke-miterlimit:10;stroke-dasharray:none;stroke-opacity:1"
               id="path212" />
          </g>
          <g
             id="g214">
            <path
               d="m 2.83484,-35.43349 c 0,1.56565 -1.2692,2.83484 -2.83484,2.83484 -1.56564,0 -2.83484,-1.26919 -2.83484,-2.83484 0,-1.56566 1.2692,-2.83485 2.83484,-2.83485 1.56564,0 2.83484,1.26919 2.83484,2.83485 z"
               style="fill:#fcd205;fill-opacity:1;fill-rule:nonzero;stroke:none"
               id="path216" />
            <g
               id="g218">
              <g
                 id="g220"
                 clip-path="url(#clipPath224)">
                <g
                   id="g226"
                   transform="matrix(0.1134,0,0,0.1134,0,-35.43347)">
                  <g
                     id="g228">
                    <g
                       id="g230"
                       transform="translate(-50,-50)">
                      <g
                         id="g232">
                        <g
                           id="g234"
                           clip-path="url(#clipPath238)">
                          <path
                             d="M 0,0 H 100 V 100 H 0 Z"
                             style="fill:url(#radialGradient246);stroke:none"
                             id="path248" />
                        </g>
                      </g>
                    </g>
                  </g>
                </g>
              </g>
            </g>
            <path
               d="m 2.83484,-35.43349 c 0,1.56565 -1.2692,2.83484 -2.83484,2.83484 -1.56564,0 -2.83484,-1.26919 -2.83484,-2.83484 0,-1.56566 1.2692,-2.83485 2.83484,-2.83485 1.56564,0 2.83484,1.26919 2.83484,2.83485 z"
               style="fill:none;stroke:#fcd205;stroke-width:0.3985;stroke-linecap:butt;stroke-linejoin:miter;stroke-miterlimit:10;stroke-dasharray:none;stroke-opacity:1"
               id="path250" />
          </g>
        </g>
      </g>
    </g>
  </g>
</svg>
